<svg xmlns="http://www.w3.org/2000/svg" width="201" height="46" fill="none" viewBox="0 0 201 46"><path fill="#FCD34D" d="M100.094 38.5434H101.505C102.506 38.5434 103.341 38.2854 104.009 37.7696C104.706 37.2233 105.374 36.4647 106.011 35.4936L113.704 23.9773L106.922 11.414C106.467 10.5643 105.996 9.95737 105.511 9.59322C105.055 9.22907 104.327 9.04699 103.326 9.04699H100.549V7.59038H114.66V9.04699H111.929C111.383 9.04699 111.11 9.27459 111.11 9.72978C111.11 9.91185 111.14 10.1091 111.201 10.3215C111.261 10.5339 111.352 10.7312 111.474 10.9133L116.39 20.0171L120.714 13.5534C121.321 12.643 121.624 11.7781 121.624 10.9588C121.624 10.4429 121.412 10.0029 120.987 9.63874C120.593 9.24424 120.062 9.04699 119.394 9.04699H117.983V7.59038H130.273V9.04699H128.225C127.314 9.04699 126.54 9.22907 125.903 9.59322C125.296 9.92703 124.735 10.4884 124.219 11.2774L117.255 21.7468L125.311 36.5405C125.736 37.2992 126.161 37.8303 126.586 38.1337C127.011 38.4068 127.527 38.5434 128.134 38.5434H130.956V40H116.845V38.5434H119.576C120.001 38.5434 120.304 38.4523 120.486 38.2703C120.699 38.0882 120.805 37.8606 120.805 37.5875C120.805 37.4054 120.775 37.2082 120.714 36.9957C120.653 36.7833 120.577 36.6012 120.486 36.4495L114.66 25.707L109.425 33.6728C108.667 34.826 108.287 35.7819 108.287 36.5405C108.287 37.0868 108.424 37.5571 108.697 37.9516C108.97 38.3461 109.38 38.5434 109.926 38.5434H112.384V40H100.094V38.5434Z"/><path fill="#FCD34D" d="M125.252 21.4227L127.234 24.8064L129.217 21.4227H130.683L128.01 25.5608L130.683 29.6989H129.217L127.234 26.4875L125.252 29.6989H123.786L126.415 25.5608L123.786 21.4227H125.252ZM131.759 29.6989V18.6639H133.096V28.5135H138.225V29.6989H131.759ZM142.574 29.8713C141.826 29.8713 141.171 29.6935 140.607 29.3379C140.046 28.9823 139.608 28.4848 139.292 27.8454C138.98 27.206 138.823 26.4588 138.823 25.6039C138.823 24.7418 138.98 23.9892 139.292 23.3462C139.608 22.7033 140.046 22.204 140.607 21.8483C141.171 21.4927 141.826 21.3149 142.574 21.3149C143.321 21.3149 143.974 21.4927 144.535 21.8483C145.099 22.204 145.537 22.7033 145.85 23.3462C146.166 23.9892 146.324 24.7418 146.324 25.6039C146.324 26.4588 146.166 27.206 145.85 27.8454C145.537 28.4848 145.099 28.9823 144.535 29.3379C143.974 29.6935 143.321 29.8713 142.574 29.8713ZM142.574 28.729C143.141 28.729 143.608 28.5835 143.974 28.2926C144.341 28.0016 144.612 27.6191 144.788 27.1449C144.964 26.6707 145.052 26.1571 145.052 25.6039C145.052 25.0507 144.964 24.5352 144.788 24.0575C144.612 23.5797 144.341 23.1936 143.974 22.899C143.608 22.6045 143.141 22.4572 142.574 22.4572C142.006 22.4572 141.539 22.6045 141.173 22.899C140.806 23.1936 140.535 23.5797 140.359 24.0575C140.183 24.5352 140.095 25.0507 140.095 25.6039C140.095 26.1571 140.183 26.6707 140.359 27.1449C140.535 27.6191 140.806 28.0016 141.173 28.2926C141.539 28.5835 142.006 28.729 142.574 28.729ZM150.695 32.9749C150.081 32.9749 149.553 32.8959 149.111 32.7378C148.669 32.5833 148.301 32.3786 148.006 32.1236C147.715 31.8721 147.484 31.6027 147.311 31.3153L148.324 30.6041C148.439 30.755 148.585 30.9274 148.761 31.1214C148.937 31.3189 149.177 31.4895 149.483 31.6332C149.792 31.7805 150.196 31.8541 150.695 31.8541C151.363 31.8541 151.915 31.6925 152.349 31.3692C152.784 31.0459 153.001 30.5394 153.001 29.8498V28.1686H152.893C152.8 28.3195 152.667 28.5063 152.495 28.729C152.326 28.9481 152.082 29.1439 151.762 29.3163C151.446 29.4852 151.018 29.5696 150.479 29.5696C149.811 29.5696 149.211 29.4115 148.68 29.0954C148.152 28.7793 147.733 28.3195 147.424 27.716C147.119 27.1126 146.966 26.3798 146.966 25.5177C146.966 24.6699 147.115 23.9318 147.414 23.3031C147.712 22.6709 148.127 22.1824 148.658 21.8376C149.19 21.4891 149.804 21.3149 150.501 21.3149C151.04 21.3149 151.467 21.4047 151.783 21.5843C152.103 21.7603 152.347 21.9615 152.516 22.1878C152.689 22.4105 152.822 22.5937 152.915 22.7374H153.044V21.4227H154.273V29.936C154.273 30.6472 154.111 31.2255 153.788 31.6709C153.468 32.12 153.037 32.4486 152.495 32.657C151.956 32.8689 151.356 32.9749 150.695 32.9749ZM150.652 28.4273C151.162 28.4273 151.593 28.3105 151.945 28.077C152.297 27.8436 152.565 27.5077 152.748 27.0695C152.931 26.6312 153.023 26.1068 153.023 25.4961C153.023 24.8998 152.933 24.3736 152.753 23.9174C152.574 23.4612 152.308 23.1038 151.956 22.8452C151.604 22.5865 151.169 22.4572 150.652 22.4572C150.113 22.4572 149.664 22.5937 149.305 22.8667C148.949 23.1397 148.682 23.5061 148.502 23.9659C148.326 24.4257 148.238 24.9358 148.238 25.4961C148.238 26.0709 148.328 26.5791 148.507 27.021C148.691 27.4592 148.96 27.804 149.316 28.0555C149.675 28.3034 150.12 28.4273 150.652 28.4273ZM155.69 29.6989V21.4227H156.962V29.6989H155.69ZM156.337 20.0433C156.089 20.0433 155.875 19.9589 155.695 19.7901C155.519 19.6212 155.431 19.4183 155.431 19.1812C155.431 18.9441 155.519 18.7412 155.695 18.5723C155.875 18.4035 156.089 18.3191 156.337 18.3191C156.584 18.3191 156.796 18.4035 156.972 18.5723C157.152 18.7412 157.242 18.9441 157.242 19.1812C157.242 19.4183 157.152 19.6212 156.972 19.7901C156.796 19.9589 156.584 20.0433 156.337 20.0433ZM161.743 29.8713C160.967 29.8713 160.298 29.6881 159.738 29.3217C159.178 28.9553 158.747 28.4506 158.445 27.8076C158.143 27.1647 157.992 26.4301 157.992 25.6039C157.992 24.7633 158.147 24.0216 158.456 23.3786C158.768 22.732 159.203 22.2273 159.76 21.8645C160.32 21.4981 160.974 21.3149 161.721 21.3149C162.303 21.3149 162.827 21.4227 163.294 21.6382C163.761 21.8537 164.144 22.1555 164.442 22.5434C164.74 22.9314 164.925 23.384 164.997 23.9012H163.725C163.628 23.5241 163.413 23.19 163.079 22.899C162.748 22.6045 162.303 22.4572 161.743 22.4572C161.247 22.4572 160.812 22.5865 160.439 22.8452C160.069 23.1002 159.779 23.4612 159.571 23.9282C159.366 24.3916 159.264 24.9358 159.264 25.5608C159.264 26.2002 159.365 26.757 159.566 27.2311C159.77 27.7053 160.058 28.0735 160.428 28.3357C160.801 28.5979 161.24 28.729 161.743 28.729C162.073 28.729 162.373 28.6715 162.642 28.5566C162.912 28.4416 163.14 28.2764 163.327 28.0609C163.513 27.8454 163.646 27.5867 163.725 27.285H164.997C164.925 27.7735 164.747 28.2135 164.464 28.6051C164.183 28.993 163.812 29.302 163.348 29.5319C162.888 29.7582 162.353 29.8713 161.743 29.8713ZM169.475 29.6989V18.6639H170.811V28.5135H175.941V29.6989H169.475ZM179.362 29.8929C178.838 29.8929 178.362 29.7941 177.935 29.5965C177.507 29.3954 177.168 29.1062 176.916 28.729C176.665 28.3483 176.539 27.8885 176.539 27.3496C176.539 26.8755 176.632 26.4911 176.819 26.1966C177.006 25.8984 177.256 25.665 177.568 25.4961C177.881 25.3273 178.226 25.2016 178.603 25.119C178.983 25.0327 179.366 24.9645 179.75 24.9142C180.253 24.8495 180.661 24.8011 180.973 24.7687C181.29 24.7328 181.519 24.6735 181.663 24.5909C181.81 24.5083 181.884 24.3646 181.884 24.1599V24.1168C181.884 23.5851 181.739 23.172 181.448 22.8775C181.16 22.5829 180.724 22.4357 180.138 22.4357C179.531 22.4357 179.055 22.5686 178.71 22.8344C178.366 23.1002 178.123 23.384 177.983 23.6857L176.776 23.2546C176.992 22.7518 177.279 22.3602 177.638 22.08C178.001 21.7963 178.396 21.5987 178.824 21.4873C179.255 21.3724 179.679 21.3149 180.095 21.3149C180.361 21.3149 180.666 21.3472 181.011 21.4119C181.36 21.473 181.695 21.6005 182.019 21.7945C182.346 21.9884 182.617 22.2812 182.832 22.6727C183.048 23.0643 183.156 23.5887 183.156 24.2461V29.6989H181.884V28.5781H181.819C181.733 28.7578 181.59 28.9499 181.388 29.1547C181.187 29.3594 180.92 29.5336 180.586 29.6773C180.251 29.821 179.844 29.8929 179.362 29.8929ZM179.556 28.7506C180.059 28.7506 180.483 28.6518 180.828 28.4542C181.176 28.2567 181.439 28.0016 181.615 27.6891C181.794 27.3766 181.884 27.0479 181.884 26.7031V25.5392C181.83 25.6039 181.712 25.6632 181.528 25.717C181.349 25.7673 181.141 25.8122 180.903 25.8517C180.67 25.8877 180.442 25.92 180.219 25.9487C180 25.9739 179.822 25.9954 179.686 26.0134C179.355 26.0565 179.046 26.1265 178.759 26.2235C178.475 26.3169 178.245 26.4588 178.069 26.6492C177.897 26.836 177.811 27.091 177.811 27.4143C177.811 27.8561 177.974 28.1902 178.301 28.4165C178.631 28.6392 179.05 28.7506 179.556 28.7506ZM184.739 29.6989V18.6639H186.01V22.7374H186.118C186.211 22.5937 186.341 22.4105 186.506 22.1878C186.675 21.9615 186.915 21.7603 187.228 21.5843C187.544 21.4047 187.972 21.3149 188.51 21.3149C189.207 21.3149 189.821 21.4891 190.353 21.8376C190.885 22.186 191.3 22.6799 191.598 23.3193C191.896 23.9587 192.045 24.713 192.045 25.5823C192.045 26.4588 191.896 27.2185 191.598 27.8615C191.3 28.5009 190.887 28.9966 190.359 29.3487C189.83 29.6971 189.222 29.8713 188.532 29.8713C188 29.8713 187.575 29.7833 187.255 29.6073C186.935 29.4277 186.689 29.2247 186.517 28.9984C186.344 28.7685 186.211 28.5781 186.118 28.4273H185.967V29.6989H184.739ZM185.989 25.5608C185.989 26.1858 186.08 26.7372 186.264 27.2149C186.447 27.6891 186.714 28.0609 187.066 28.3303C187.418 28.5961 187.849 28.729 188.36 28.729C188.891 28.729 189.335 28.5889 189.69 28.3087C190.05 28.025 190.319 27.6442 190.499 27.1665C190.682 26.6851 190.773 26.1499 190.773 25.5608C190.773 24.9789 190.684 24.4544 190.504 23.9874C190.328 23.5169 190.06 23.1451 189.701 22.8721C189.346 22.5955 188.898 22.4572 188.36 22.4572C187.842 22.4572 187.408 22.5883 187.056 22.8505C186.704 23.1092 186.438 23.472 186.258 23.9389C186.079 24.4023 185.989 24.9429 185.989 25.5608ZM198.942 23.2762L197.8 23.5995C197.728 23.4091 197.622 23.2241 197.482 23.0445C197.345 22.8613 197.159 22.7104 196.922 22.5919C196.684 22.4734 196.381 22.4141 196.011 22.4141C195.504 22.4141 195.082 22.5308 194.745 22.7643C194.411 22.9942 194.244 23.287 194.244 23.6426C194.244 23.9587 194.359 24.2084 194.588 24.3916C194.818 24.5747 195.178 24.7274 195.666 24.8495L196.895 25.1513C197.635 25.3309 198.186 25.6057 198.549 25.9757C198.912 26.3421 199.093 26.8144 199.093 27.3928C199.093 27.8669 198.956 28.2908 198.683 28.6644C198.414 29.0379 198.037 29.3325 197.552 29.548C197.067 29.7635 196.503 29.8713 195.86 29.8713C195.016 29.8713 194.317 29.6881 193.764 29.3217C193.211 28.9553 192.861 28.4201 192.713 27.716L193.92 27.4143C194.035 27.8597 194.253 28.1938 194.572 28.4165C194.896 28.6392 195.318 28.7506 195.838 28.7506C196.431 28.7506 196.902 28.6248 197.25 28.3734C197.602 28.1184 197.778 27.813 197.778 27.4574C197.778 27.17 197.678 26.9294 197.476 26.7354C197.275 26.5378 196.966 26.3906 196.55 26.2936L195.17 25.9703C194.412 25.7907 193.856 25.5123 193.5 25.1351C193.148 24.7544 192.972 24.2784 192.972 23.7073C192.972 23.2403 193.103 22.8272 193.365 22.468C193.631 22.1088 193.992 21.8268 194.448 21.622C194.908 21.4173 195.429 21.3149 196.011 21.3149C196.83 21.3149 197.473 21.4945 197.94 21.8537C198.41 22.2129 198.744 22.6871 198.942 23.2762Z"/><path fill="#FCD34D" d="M3.0625 19L5.9375 23.9062L8.8125 19H10.9375L7.0625 25L10.9375 31H8.8125L5.9375 26.3437L3.0625 31H0.9375L4.75 25L0.9375 19H3.0625ZM12.0584 31V15H17.4646C18.7146 15 19.7407 15.2135 20.5427 15.6406C21.3448 16.0625 21.9386 16.6432 22.324 17.3828C22.7094 18.1224 22.9021 18.9635 22.9021 19.9062C22.9021 20.849 22.7094 21.6849 22.324 22.4141C21.9386 23.1432 21.3474 23.7161 20.5505 24.1328C19.7537 24.5443 18.7354 24.75 17.4959 24.75H13.1209V23H17.4334C18.2875 23 18.975 22.875 19.4959 22.625C20.0219 22.375 20.4021 22.0208 20.6365 21.5625C20.8761 21.099 20.9959 20.5469 20.9959 19.9062C20.9959 19.2656 20.8761 18.7057 20.6365 18.2266C20.3969 17.7474 20.0141 17.3776 19.488 17.1172C18.962 16.8516 18.2667 16.7187 17.4021 16.7187H13.9959V31H12.0584ZM19.5896 23.8125L23.5271 31H21.2771L17.4021 23.8125H19.5896ZM28.8667 31.25C27.7834 31.25 26.8329 30.9922 26.0152 30.4766C25.2027 29.9609 24.5672 29.2396 24.1089 28.3125C23.6558 27.3854 23.4292 26.3021 23.4292 25.0625C23.4292 23.8125 23.6558 22.7214 24.1089 21.7891C24.5672 20.8568 25.2027 20.1328 26.0152 19.6172C26.8329 19.1016 27.7834 18.8438 28.8667 18.8438C29.9501 18.8438 30.898 19.1016 31.7105 19.6172C32.5282 20.1328 33.1636 20.8568 33.6167 21.7891C34.0751 22.7214 34.3042 23.8125 34.3042 25.0625C34.3042 26.3021 34.0751 27.3854 33.6167 28.3125C33.1636 29.2396 32.5282 29.9609 31.7105 30.4766C30.898 30.9922 29.9501 31.25 28.8667 31.25ZM28.8667 29.5938C29.6896 29.5938 30.3667 29.3828 30.898 28.9609C31.4292 28.5391 31.8224 27.9844 32.0777 27.2969C32.3329 26.6094 32.4605 25.8646 32.4605 25.0625C32.4605 24.2604 32.3329 23.513 32.0777 22.8203C31.8224 22.1276 31.4292 21.5677 30.898 21.1406C30.3667 20.7135 29.6896 20.5 28.8667 20.5C28.0438 20.5 27.3667 20.7135 26.8355 21.1406C26.3042 21.5677 25.911 22.1276 25.6558 22.8203C25.4006 23.513 25.273 24.2604 25.273 25.0625C25.273 25.8646 25.4006 26.6094 25.6558 27.2969C25.911 27.9844 26.3042 28.5391 26.8355 28.9609C27.3667 29.3828 28.0438 29.5938 28.8667 29.5938ZM35.6087 31V15H37.4524V20.9062H37.6087C37.7441 20.6979 37.9316 20.4323 38.1712 20.1094C38.416 19.7812 38.7649 19.4896 39.218 19.2344C39.6764 18.974 40.2962 18.8438 41.0774 18.8438C42.0878 18.8438 42.9785 19.0964 43.7493 19.6016C44.5201 20.1068 45.1217 20.8229 45.554 21.75C45.9863 22.6771 46.2024 23.7708 46.2024 25.0313C46.2024 26.3021 45.9863 27.4036 45.554 28.3359C45.1217 29.263 44.5227 29.9818 43.7571 30.4922C42.9915 30.9974 42.1087 31.25 41.1087 31.25C40.3378 31.25 39.7207 31.1224 39.2571 30.8672C38.7936 30.6068 38.4368 30.3125 38.1868 29.9844C37.9368 29.651 37.7441 29.375 37.6087 29.1562H37.3899V31H35.6087ZM37.4212 25C37.4212 25.9062 37.554 26.7057 37.8196 27.3984C38.0852 28.0859 38.4733 28.625 38.9837 29.0156C39.4941 29.401 40.1191 29.5938 40.8587 29.5938C41.6295 29.5938 42.2727 29.3906 42.7884 28.9844C43.3092 28.5729 43.6998 28.0208 43.9602 27.3281C44.2259 26.6302 44.3587 25.8542 44.3587 25C44.3587 24.1562 44.2285 23.3958 43.968 22.7187C43.7128 22.0365 43.3248 21.4974 42.804 21.1016C42.2884 20.7005 41.6399 20.5 40.8587 20.5C40.1087 20.5 39.4785 20.6901 38.968 21.0703C38.4576 21.4453 38.0722 21.9714 37.8118 22.6484C37.5514 23.3203 37.4212 24.1042 37.4212 25ZM52.1377 31.25C51.0544 31.25 50.1039 30.9922 49.2862 30.4766C48.4737 29.9609 47.8383 29.2396 47.3799 28.3125C46.9268 27.3854 46.7002 26.3021 46.7002 25.0625C46.7002 23.8125 46.9268 22.7214 47.3799 21.7891C47.8383 20.8568 48.4737 20.1328 49.2862 19.6172C50.1039 19.1016 51.0544 18.8438 52.1377 18.8438C53.2211 18.8438 54.169 19.1016 54.9815 19.6172C55.7992 20.1328 56.4346 20.8568 56.8877 21.7891C57.3461 22.7214 57.5752 23.8125 57.5752 25.0625C57.5752 26.3021 57.3461 27.3854 56.8877 28.3125C56.4346 29.2396 55.7992 29.9609 54.9815 30.4766C54.169 30.9922 53.2211 31.25 52.1377 31.25ZM52.1377 29.5938C52.9607 29.5938 53.6377 29.3828 54.169 28.9609C54.7002 28.5391 55.0935 27.9844 55.3487 27.2969C55.6039 26.6094 55.7315 25.8646 55.7315 25.0625C55.7315 24.2604 55.6039 23.513 55.3487 22.8203C55.0935 22.1276 54.7002 21.5677 54.169 21.1406C53.6377 20.7135 52.9607 20.5 52.1377 20.5C51.3148 20.5 50.6377 20.7135 50.1065 21.1406C49.5752 21.5677 49.182 22.1276 48.9268 22.8203C48.6716 23.513 48.544 24.2604 48.544 25.0625C48.544 25.8646 48.6716 26.6094 48.9268 27.2969C49.182 27.9844 49.5752 28.5391 50.1065 28.9609C50.6377 29.3828 51.3148 29.5938 52.1377 29.5938ZM63.8484 19V20.5625H57.6297V19H63.8484ZM59.4422 16.125H61.2859V27.5625C61.2859 28.0833 61.3615 28.474 61.5125 28.7344C61.6688 28.9896 61.8667 29.1615 62.1063 29.25C62.351 29.3333 62.6089 29.375 62.8797 29.375C63.0828 29.375 63.2495 29.3646 63.3797 29.3437C63.5099 29.3177 63.6141 29.2969 63.6922 29.2812L64.0672 30.9375C63.9422 30.9844 63.7677 31.0313 63.5438 31.0781C63.3198 31.1302 63.0359 31.1563 62.6922 31.1563C62.1714 31.1563 61.6609 31.0443 61.1609 30.8203C60.6661 30.5964 60.2547 30.2552 59.9266 29.7969C59.6036 29.3385 59.4422 28.7604 59.4422 28.0625V16.125ZM64.8619 31V19H66.7056V31H64.8619ZM65.7994 17C65.44 17 65.1301 16.8776 64.8697 16.6328C64.6145 16.388 64.4869 16.0938 64.4869 15.75C64.4869 15.4063 64.6145 15.112 64.8697 14.8672C65.1301 14.6224 65.44 14.5 65.7994 14.5C66.1587 14.5 66.466 14.6224 66.7212 14.8672C66.9817 15.112 67.1119 15.4063 67.1119 15.75C67.1119 16.0938 66.9817 16.388 66.7212 16.6328C66.466 16.8776 66.1587 17 65.7994 17ZM73.1976 31.25C72.0726 31.25 71.1038 30.9844 70.2913 30.4531C69.4788 29.9219 68.8538 29.1901 68.4163 28.2578C67.9788 27.3255 67.7601 26.2604 67.7601 25.0625C67.7601 23.8437 67.984 22.7682 68.432 21.8359C68.8851 20.8984 69.5153 20.1667 70.3226 19.6406C71.1351 19.1094 72.083 18.8438 73.1663 18.8438C74.0101 18.8438 74.7705 19 75.4476 19.3125C76.1247 19.625 76.6793 20.0625 77.1116 20.625C77.5439 21.1875 77.8122 21.8437 77.9163 22.5937H76.0726C75.932 22.0469 75.6195 21.5625 75.1351 21.1406C74.6559 20.7135 74.0101 20.5 73.1976 20.5C72.4788 20.5 71.8486 20.6875 71.307 21.0625C70.7705 21.4323 70.3512 21.9557 70.0491 22.6328C69.7523 23.3047 69.6038 24.0937 69.6038 25C69.6038 25.9271 69.7497 26.7344 70.0413 27.4219C70.3382 28.1094 70.7549 28.6432 71.2913 29.0234C71.833 29.4036 72.4684 29.5938 73.1976 29.5938C73.6767 29.5938 74.1116 29.5104 74.5023 29.3437C74.8929 29.1771 75.2236 28.9375 75.4945 28.625C75.7653 28.3125 75.958 27.9375 76.0726 27.5H77.9163C77.8122 28.2083 77.5543 28.8464 77.1429 29.4141C76.7366 29.9766 76.1976 30.4245 75.5257 30.7578C74.859 31.0859 74.083 31.25 73.1976 31.25ZM87.3516 21.6875L85.6954 22.1562C85.5912 21.8802 85.4376 21.612 85.2345 21.3516C85.0365 21.0859 84.7657 20.8672 84.422 20.6953C84.0782 20.5234 83.6381 20.4375 83.1016 20.4375C82.3673 20.4375 81.7553 20.6068 81.2657 20.9453C80.7813 21.2786 80.5391 21.7031 80.5391 22.2187C80.5391 22.6771 80.7058 23.0391 81.0391 23.3047C81.3725 23.5703 81.8933 23.7917 82.6016 23.9687L84.3829 24.4063C85.4558 24.6667 86.2553 25.0651 86.7813 25.6016C87.3074 26.1328 87.5704 26.8177 87.5704 27.6562C87.5704 28.3437 87.3725 28.9583 86.9766 29.5C86.586 30.0417 86.0391 30.4688 85.336 30.7813C84.6329 31.0938 83.8152 31.25 82.8829 31.25C81.6589 31.25 80.6459 30.9844 79.8438 30.4531C79.0417 29.9219 78.5339 29.1458 78.3204 28.125L80.0704 27.6875C80.2371 28.3333 80.5522 28.8177 81.0157 29.1406C81.4845 29.4635 82.0964 29.625 82.8516 29.625C83.711 29.625 84.3933 29.4427 84.8985 29.0781C85.4089 28.7083 85.6641 28.2656 85.6641 27.75C85.6641 27.3333 85.5183 26.9844 85.2266 26.7031C84.935 26.4167 84.4871 26.2031 83.8829 26.0625L81.8829 25.5937C80.7839 25.3333 79.9766 24.9297 79.461 24.3828C78.9506 23.8307 78.6954 23.1406 78.6954 22.3125C78.6954 21.6354 78.8855 21.0365 79.2657 20.5156C79.6511 19.9948 80.1746 19.5859 80.836 19.2891C81.5027 18.9922 82.2579 18.8438 83.1016 18.8438C84.2891 18.8438 85.2214 19.1042 85.8985 19.625C86.5808 20.1458 87.0652 20.8333 87.3516 21.6875ZM91.136 31V23.7273H91.9741V26.4119H92.0451C92.1066 26.3172 92.1919 26.1965 92.3008 26.0497C92.412 25.9006 92.5707 25.768 92.7766 25.652C92.985 25.5336 93.2667 25.4744 93.6218 25.4744C94.0811 25.4744 94.4859 25.5893 94.8363 25.8189C95.1867 26.0485 95.4601 26.3741 95.6566 26.7955C95.8531 27.2169 95.9513 27.714 95.9513 28.2869C95.9513 28.8646 95.8531 29.3653 95.6566 29.7891C95.4601 30.2105 95.1878 30.5372 94.8398 30.7692C94.4918 30.9988 94.0905 31.1136 93.636 31.1136C93.2856 31.1136 93.0051 31.0556 92.7944 30.9396C92.5837 30.8213 92.4215 30.6875 92.3079 30.5384C92.1942 30.3868 92.1066 30.2614 92.0451 30.1619H91.9457V31H91.136ZM91.9599 28.2727C91.9599 28.6847 92.0202 29.0481 92.141 29.3629C92.2617 29.6754 92.4381 29.9205 92.6701 30.098C92.9021 30.2732 93.1862 30.3608 93.5224 30.3608C93.8727 30.3608 94.1651 30.2685 94.3995 30.0838C94.6362 29.8968 94.8138 29.6458 94.9322 29.331C95.0529 29.0137 95.1133 28.661 95.1133 28.2727C95.1133 27.8892 95.0541 27.5436 94.9357 27.2358C94.8197 26.9257 94.6433 26.6806 94.4066 26.5007C94.1722 26.3184 93.8775 26.2273 93.5224 26.2273C93.1815 26.2273 92.895 26.3137 92.663 26.4865C92.431 26.657 92.2558 26.8961 92.1374 27.2038C92.019 27.5092 91.9599 27.8655 91.9599 28.2727ZM96.9778 33.0455C96.8357 33.0455 96.7091 33.0336 96.5978 33.0099C96.4865 32.9886 96.4096 32.9673 96.367 32.946L96.58 32.2074C96.7836 32.2595 96.9636 32.2784 97.1198 32.2642C97.2761 32.25 97.4146 32.1802 97.5353 32.0547C97.6584 31.9316 97.7708 31.7315 97.8726 31.4545L98.0289 31.0284L96.0119 25.5455H96.9209L98.4266 29.892H98.4834L99.9891 25.5455H100.898L98.5829 31.7955C98.4787 32.0772 98.3497 32.3104 98.1958 32.495C98.0419 32.6821 97.8632 32.8205 97.6596 32.9105C97.4583 33.0005 97.2311 33.0455 96.9778 33.0455Z"/></svg>