<svg width="96" height="46" viewBox="0 0 96 46" fill="none" xmlns="http://www.w3.org/2000/svg">
<path d="M2.09388 38.5434H3.50497C4.50639 38.5434 5.34091 38.2854 6.00853 37.7696C6.70649 37.2233 7.3741 36.4647 8.01137 35.4936L15.7041 23.9773L8.92175 11.414C8.46656 10.5643 7.99619 9.95737 7.51066 9.59322C7.05547 9.22907 6.32716 9.04699 5.32574 9.04699H2.54907V7.59038H16.66V9.04699H13.9289C13.3826 9.04699 13.1095 9.27459 13.1095 9.72978C13.1095 9.91185 13.1399 10.1091 13.2005 10.3215C13.2612 10.5339 13.3523 10.7312 13.4737 10.9133L18.3897 20.0171L22.714 13.5534C23.321 12.643 23.6244 11.7781 23.6244 10.9588C23.6244 10.4429 23.412 10.0029 22.9872 9.63874C22.5927 9.24424 22.0616 9.04699 21.394 9.04699H19.9829V7.59038H32.2731V9.04699H30.2247C29.3143 9.04699 28.5405 9.22907 27.9032 9.59322C27.2963 9.92703 26.7349 10.4884 26.219 11.2774L19.2546 21.7468L27.3115 36.5405C27.7363 37.2992 28.1612 37.8303 28.586 38.1337C29.0109 38.4068 29.5267 38.5434 30.1337 38.5434H32.9559V40H18.8449V38.5434H21.5761C22.0009 38.5434 22.3044 38.4523 22.4865 38.2703C22.6989 38.0882 22.8051 37.8606 22.8051 37.5875C22.8051 37.4054 22.7747 37.2082 22.714 36.9957C22.6534 36.7833 22.5775 36.6012 22.4865 36.4495L16.66 25.707L11.4253 33.6728C10.6667 34.826 10.2873 35.7819 10.2873 36.5405C10.2873 37.0868 10.4239 37.5571 10.697 37.9516C10.9701 38.3461 11.3798 38.5434 11.926 38.5434H14.384V40H2.09388V38.5434Z" fill="#FCD34D"/>
<path d="M34.1122 21.4227L36.095 24.8064L38.0778 21.4227H39.5434L36.8709 25.5608L39.5434 29.6989H38.0778L36.095 26.4875L34.1122 29.6989H32.6466L35.276 25.5608L32.6466 21.4227H34.1122ZM40.6199 29.6989V18.6639H44.3485C45.2106 18.6639 45.9183 18.8112 46.4715 19.1058C47.0246 19.3967 47.4341 19.7973 47.7 20.3073C47.9658 20.8174 48.0987 21.3975 48.0987 22.0477C48.0987 22.6979 47.9658 23.2744 47.7 23.7773C47.4341 24.2802 47.0264 24.6753 46.4768 24.9627C45.9272 25.2465 45.225 25.3884 44.3701 25.3884H41.3527V24.1814H44.327C44.9161 24.1814 45.3902 24.0952 45.7494 23.9228C46.1122 23.7504 46.3745 23.5061 46.5361 23.19C46.7013 22.8703 46.784 22.4895 46.784 22.0477C46.784 21.6059 46.7013 21.2197 46.5361 20.8893C46.3709 20.5588 46.1069 20.3037 45.7441 20.1241C45.3812 19.9409 44.9017 19.8493 44.3054 19.8493H41.9562V29.6989H40.6199ZM45.8141 24.7418L48.5297 29.6989H46.9779L44.3054 24.7418H45.8141ZM52.5158 29.8713C51.7687 29.8713 51.1131 29.6935 50.5492 29.3379C49.9888 28.9823 49.5505 28.4848 49.2344 27.8454C48.9219 27.206 48.7657 26.4588 48.7657 25.6039C48.7657 24.7418 48.9219 23.9892 49.2344 23.3462C49.5505 22.7033 49.9888 22.204 50.5492 21.8483C51.1131 21.4927 51.7687 21.3149 52.5158 21.3149C53.263 21.3149 53.9167 21.4927 54.4771 21.8483C55.0411 22.204 55.4793 22.7033 55.7918 23.3462C56.1079 23.9892 56.266 24.7418 56.266 25.6039C56.266 26.4588 56.1079 27.206 55.7918 27.8454C55.4793 28.4848 55.0411 28.9823 54.4771 29.3379C53.9167 29.6935 53.263 29.8713 52.5158 29.8713ZM52.5158 28.729C53.0834 28.729 53.5504 28.5835 53.9167 28.2926C54.2831 28.0016 54.5543 27.6191 54.7304 27.1449C54.9064 26.6707 54.9944 26.1571 54.9944 25.6039C54.9944 25.0507 54.9064 24.5352 54.7304 24.0575C54.5543 23.5797 54.2831 23.1936 53.9167 22.899C53.5504 22.6045 53.0834 22.4572 52.5158 22.4572C51.9483 22.4572 51.4813 22.6045 51.1149 22.899C50.7485 23.1936 50.4773 23.5797 50.3013 24.0575C50.1253 24.5352 50.0373 25.0507 50.0373 25.6039C50.0373 26.1571 50.1253 26.6707 50.3013 27.1449C50.4773 27.6191 50.7485 28.0016 51.1149 28.2926C51.4813 28.5835 51.9483 28.729 52.5158 28.729ZM57.4691 29.6989V18.6639H58.7407V22.7374H58.8485C58.9419 22.5937 59.0712 22.4105 59.2364 22.1878C59.4053 21.9615 59.6459 21.7603 59.9584 21.5843C60.2745 21.4047 60.702 21.3149 61.2408 21.3149C61.9377 21.3149 62.5519 21.4891 63.0836 21.8376C63.6152 22.186 64.0301 22.6799 64.3282 23.3193C64.6264 23.9587 64.7754 24.713 64.7754 25.5823C64.7754 26.4588 64.6264 27.2185 64.3282 27.8615C64.0301 28.5009 63.617 28.9966 63.089 29.3487C62.5609 29.6971 61.9521 29.8713 61.2624 29.8713C60.7307 29.8713 60.3051 29.7833 59.9854 29.6073C59.6657 29.4277 59.4196 29.2247 59.2472 28.9984C59.0748 28.7685 58.9419 28.5781 58.8485 28.4273H58.6976V29.6989H57.4691ZM58.7192 25.5608C58.7192 26.1858 58.8108 26.7372 58.994 27.2149C59.1772 27.6891 59.4448 28.0609 59.7968 28.3303C60.1488 28.5961 60.5799 28.729 61.0899 28.729C61.6216 28.729 62.0652 28.5889 62.4208 28.3087C62.78 28.025 63.0494 27.6442 63.229 27.1665C63.4122 26.6851 63.5038 26.1499 63.5038 25.5608C63.5038 24.9789 63.414 24.4544 63.2344 23.9874C63.0584 23.5169 62.7908 23.1451 62.4316 22.8721C62.076 22.5955 61.6288 22.4572 61.0899 22.4572C60.5727 22.4572 60.138 22.5883 59.786 22.8505C59.434 23.1092 59.1682 23.472 58.9886 23.9389C58.809 24.4023 58.7192 24.9429 58.7192 25.5608ZM69.1724 29.8713C68.4252 29.8713 67.7697 29.6935 67.2057 29.3379C66.6453 28.9823 66.2071 28.4848 65.891 27.8454C65.5785 27.206 65.4222 26.4588 65.4222 25.6039C65.4222 24.7418 65.5785 23.9892 65.891 23.3462C66.2071 22.7033 66.6453 22.204 67.2057 21.8483C67.7697 21.4927 68.4252 21.3149 69.1724 21.3149C69.9196 21.3149 70.5733 21.4927 71.1337 21.8483C71.6976 22.204 72.1359 22.7033 72.4484 23.3462C72.7645 23.9892 72.9225 24.7418 72.9225 25.6039C72.9225 26.4588 72.7645 27.206 72.4484 27.8454C72.1359 28.4848 71.6976 28.9823 71.1337 29.3379C70.5733 29.6935 69.9196 29.8713 69.1724 29.8713ZM69.1724 28.729C69.7399 28.729 70.2069 28.5835 70.5733 28.2926C70.9397 28.0016 71.2109 27.6191 71.3869 27.1449C71.5629 26.6707 71.6509 26.1571 71.6509 25.6039C71.6509 25.0507 71.5629 24.5352 71.3869 24.0575C71.2109 23.5797 70.9397 23.1936 70.5733 22.899C70.2069 22.6045 69.7399 22.4572 69.1724 22.4572C68.6048 22.4572 68.1379 22.6045 67.7715 22.899C67.4051 23.1936 67.1339 23.5797 66.9579 24.0575C66.7818 24.5352 66.6938 25.0507 66.6938 25.6039C66.6938 26.1571 66.7818 26.6707 66.9579 27.1449C67.1339 27.6191 67.4051 28.0016 67.7715 28.2926C68.1379 28.5835 68.6048 28.729 69.1724 28.729ZM77.5525 21.4227V22.5003H73.2636V21.4227H77.5525ZM74.5136 19.4398H75.7852V27.3281C75.7852 27.6873 75.8373 27.9567 75.9415 28.1363C76.0492 28.3123 76.1857 28.4309 76.351 28.4919C76.5198 28.5494 76.6976 28.5781 76.8844 28.5781C77.0245 28.5781 77.1394 28.571 77.2292 28.5566C77.3191 28.5386 77.3909 28.5243 77.4448 28.5135L77.7034 29.6558C77.6172 29.6881 77.4969 29.7204 77.3424 29.7528C77.1879 29.7887 76.9922 29.8066 76.7551 29.8066C76.3959 29.8066 76.0439 29.7294 75.699 29.575C75.3578 29.4205 75.074 29.1852 74.8477 28.8691C74.625 28.553 74.5136 28.1543 74.5136 27.6729V19.4398ZM78.555 29.6989V21.4227H79.8266V29.6989H78.555ZM79.2015 20.0433C78.9537 20.0433 78.7399 19.9589 78.5603 19.7901C78.3843 19.6212 78.2963 19.4183 78.2963 19.1812C78.2963 18.9441 78.3843 18.7412 78.5603 18.5723C78.7399 18.4035 78.9537 18.3191 79.2015 18.3191C79.4494 18.3191 79.6613 18.4035 79.8373 18.5723C80.0169 18.7412 80.1067 18.9441 80.1067 19.1812C80.1067 19.4183 80.0169 19.6212 79.8373 19.7901C79.6613 19.9589 79.4494 20.0433 79.2015 20.0433ZM84.6074 29.8713C83.8315 29.8713 83.1634 29.6881 82.603 29.3217C82.0426 28.9553 81.6116 28.4506 81.3099 27.8076C81.0081 27.1647 80.8573 26.4301 80.8573 25.6039C80.8573 24.7633 81.0117 24.0216 81.3206 23.3786C81.6331 22.732 82.0678 22.2273 82.6246 21.8645C83.1849 21.4981 83.8387 21.3149 84.5859 21.3149C85.1678 21.3149 85.6922 21.4227 86.1592 21.6382C86.6262 21.8537 87.0087 22.1555 87.3069 22.5434C87.605 22.9314 87.79 23.384 87.8619 23.9012H86.5903C86.4933 23.5241 86.2777 23.19 85.9437 22.899C85.6132 22.6045 85.1678 22.4572 84.6074 22.4572C84.1117 22.4572 83.6771 22.5865 83.3035 22.8452C82.9335 23.1002 82.6443 23.4612 82.436 23.9282C82.2312 24.3916 82.1289 24.9358 82.1289 25.5608C82.1289 26.2002 82.2294 26.757 82.4306 27.2311C82.6353 27.7053 82.9227 28.0735 83.2927 28.3357C83.6663 28.5979 84.1045 28.729 84.6074 28.729C84.9379 28.729 85.2378 28.6715 85.5072 28.5566C85.7766 28.4416 86.0047 28.2764 86.1915 28.0609C86.3783 27.8454 86.5112 27.5867 86.5903 27.285H87.8619C87.79 27.7735 87.6122 28.2135 87.3284 28.6051C87.0482 28.993 86.6765 29.302 86.2131 29.5319C85.7533 29.7582 85.2181 29.8713 84.6074 29.8713ZM94.6727 23.2762L93.5304 23.5995C93.4586 23.4091 93.3526 23.2241 93.2125 23.0445C93.076 22.8613 92.8892 22.7104 92.6521 22.5919C92.4151 22.4734 92.1115 22.4141 91.7415 22.4141C91.2351 22.4141 90.813 22.5308 90.4753 22.7643C90.1413 22.9942 89.9742 23.287 89.9742 23.6426C89.9742 23.9587 90.0892 24.2084 90.3191 24.3916C90.549 24.5747 90.9082 24.7274 91.3967 24.8495L92.6252 25.1513C93.3652 25.3309 93.9166 25.6057 94.2794 25.9757C94.6422 26.3421 94.8236 26.8144 94.8236 27.3928C94.8236 27.8669 94.6871 28.2908 94.4141 28.6644C94.1447 29.0379 93.7675 29.3325 93.2826 29.548C92.7976 29.7635 92.2337 29.8713 91.5907 29.8713C90.7465 29.8713 90.0479 29.6881 89.4947 29.3217C88.9415 28.9553 88.5913 28.4201 88.444 27.716L89.6509 27.4143C89.7659 27.8597 89.9832 28.1938 90.3029 28.4165C90.6262 28.6392 91.0483 28.7506 91.5691 28.7506C92.1618 28.7506 92.6324 28.6248 92.9808 28.3734C93.3328 28.1184 93.5089 27.813 93.5089 27.4574C93.5089 27.17 93.4083 26.9294 93.2071 26.7354C93.006 26.5378 92.697 26.3906 92.2804 26.2936L90.901 25.9703C90.1431 25.7907 89.5863 25.5123 89.2307 25.1351C88.8786 24.7544 88.7026 24.2784 88.7026 23.7073C88.7026 23.2403 88.8337 22.8272 89.096 22.468C89.3618 22.1088 89.7228 21.8268 90.179 21.622C90.6388 21.4173 91.1596 21.3149 91.7415 21.3149C92.5605 21.3149 93.2035 21.4945 93.6705 21.8537C94.1411 22.2129 94.4751 22.6871 94.6727 23.2762Z" fill="#FCD34D"/>
</svg>
